#define sofa_width 64
#define sofa_height 64
static unsigned char sofa_bits[] = {
   0x00, 0x00, 0x00, 0x00, 0x00, 0x00, 0x00, 0x00, 0x00, 0x00, 0x00, 0x00,
   0x00, 0x00, 0x00, 0x00, 0x00, 0x00, 0x00, 0x00, 0x00, 0x00, 0x00, 0x00,
   0x00, 0x00, 0x00, 0x00, 0x00, 0x00, 0x00, 0x00, 0x00, 0x00, 0x00, 0x00,
   0x00, 0x00, 0x00, 0x00, 0x00, 0x00, 0x00, 0x00, 0x00, 0x00, 0x00, 0x00,
   0x00, 0x00, 0x00, 0x00, 0x00, 0x00, 0x00, 0x00, 0x00, 0x00, 0x00, 0x00,
   0x00, 0x00, 0x00, 0x00, 0x00, 0x00, 0x00, 0x00, 0x00, 0x00, 0x00, 0x00,
   0x00, 0x00, 0x00, 0x00, 0x00, 0x00, 0x00, 0x00, 0x00, 0x00, 0x00, 0x00,
   0x00, 0x00, 0x00, 0x00, 0x00, 0x00, 0x00, 0x00, 0x00, 0x00, 0x00, 0x00,
   0x00, 0x00, 0x00, 0x00, 0x00, 0x00, 0x00, 0x00, 0x00, 0xf8, 0xff, 0x3f,
   0xfc, 0xff, 0x1f, 0x00, 0x00, 0xfc, 0xff, 0xff, 0xff, 0xff, 0x3f, 0x00,
   0x00, 0x0e, 0x00, 0xc0, 0x03, 0x00, 0x70, 0x00, 0x00, 0x03, 0x00, 0x80,
   0x01, 0x00, 0xc0, 0x00, 0x80, 0x03, 0x00, 0x80, 0x01, 0x00, 0xc0, 0x00,
   0x80, 0x01, 0x00, 0x80, 0x01, 0x00, 0x80, 0x01, 0x80, 0x01, 0x00, 0x80,
   0x01, 0x00, 0x80, 0x01, 0x80, 0x01, 0x3c, 0x80, 0x01, 0x3c, 0x80, 0x01,
   0x80, 0x01, 0x7e, 0x80, 0x01, 0x7e, 0x80, 0x01, 0x80, 0x01, 0x66, 0x80,
   0x01, 0x66, 0x80, 0x01, 0x80, 0x01, 0x66, 0x80, 0x01, 0x66, 0x80, 0x01,
   0x80, 0x01, 0x7e, 0x80, 0x01, 0x7e, 0x80, 0x01, 0xc0, 0x03, 0x3c, 0x80,
   0x01, 0x3c, 0xc0, 0x03, 0xf0, 0x0f, 0x00, 0x80, 0x01, 0x00, 0xf0, 0x0f,
   0x38, 0x1c, 0x00, 0x80, 0x01, 0x00, 0x38, 0x1c, 0x18, 0x18, 0x00, 0x80,
   0x01, 0x00, 0x18, 0x18, 0x0c, 0x30, 0x00, 0x80, 0x01, 0x00, 0x0c, 0x30,
   0x0c, 0x30, 0x00, 0x80, 0x01, 0x00, 0x0c, 0x30, 0x0c, 0xf0, 0xff, 0xff,
   0xff, 0xff, 0x0f, 0x30, 0x0c, 0xf0, 0xff, 0xff, 0xff, 0xff, 0x0f, 0x30,
   0x18, 0x18, 0x00, 0x80, 0x01, 0x00, 0x18, 0x18, 0x38, 0x1c, 0x00, 0x80,
   0x01, 0x00, 0x38, 0x1c, 0xf0, 0x0f, 0x00, 0x80, 0x01, 0x00, 0xf0, 0x0f,
   0xf0, 0x03, 0x00, 0x80, 0x01, 0x00, 0xc0, 0x0f, 0x30, 0x03, 0x00, 0x80,
   0x01, 0x00, 0xc0, 0x0c, 0x30, 0x03, 0x00, 0x80, 0x01, 0x00, 0xc0, 0x0c,
   0x30, 0xff, 0xff, 0xff, 0xff, 0xff, 0xff, 0x0c, 0x30, 0xff, 0xff, 0xff,
   0xff, 0xff, 0xff, 0x0c, 0x30, 0x00, 0x00, 0x00, 0x00, 0x00, 0x00, 0x0c,
   0x30, 0x00, 0x00, 0x00, 0x00, 0x00, 0x00, 0x0c, 0x30, 0x00, 0x00, 0x00,
   0x00, 0x00, 0x00, 0x0c, 0x30, 0x00, 0x00, 0x00, 0x00, 0x00, 0x00, 0x0c,
   0xf0, 0xff, 0xff, 0xff, 0xff, 0xff, 0xff, 0x0f, 0xf0, 0xff, 0xff, 0xff,
   0xff, 0xff, 0xff, 0x0f, 0x80, 0x19, 0x00, 0x00, 0x00, 0x00, 0x98, 0x01,
   0x80, 0x19, 0x00, 0x00, 0x00, 0x00, 0x98, 0x01, 0x80, 0x1f, 0x00, 0x00,
   0x00, 0x00, 0xf8, 0x01, 0x80, 0x1f, 0x00, 0x00, 0x00, 0x00, 0xf8, 0x01,
   0x00, 0x00, 0x00, 0x00, 0x00, 0x00, 0x00, 0x00, 0x00, 0x00, 0x00, 0x00,
   0x00, 0x00, 0x00, 0x00, 0x00, 0x00, 0x00, 0x00, 0x00, 0x00, 0x00, 0x00,
   0x00, 0x00, 0x00, 0x00, 0x00, 0x00, 0x00, 0x00, 0x00, 0x00, 0x00, 0x00,
   0x00, 0x00, 0x00, 0x00, 0x00, 0x00, 0x00, 0x00, 0x00, 0x00, 0x00, 0x00,
   0x00, 0x00, 0x00, 0x00, 0x00, 0x00, 0x00, 0x00, 0x00, 0x00, 0x00, 0x00,
   0x00, 0x00, 0x00, 0x00, 0x00, 0x00, 0x00, 0x00, 0x00, 0x00, 0x00, 0x00,
   0x00, 0x00, 0x00, 0x00, 0x00, 0x00, 0x00, 0x00, 0x00, 0x00, 0x00, 0x00,
   0x00, 0x00, 0x00, 0x00, 0x00, 0x00, 0x00, 0x00, 0x00, 0x00, 0x00, 0x00,
   0x00, 0x00, 0x00, 0x00, 0x00, 0x00, 0x00, 0x00 };
