#define thermometer_width 64
#define thermometer_height 64
static unsigned char thermometer_bits[] = {
   0x00, 0x00, 0x00, 0x3e, 0x00, 0x00, 0x00, 0x00, 0x00, 0x00, 0x80, 0xff,
   0x00, 0x00, 0x00, 0x00, 0x00, 0x00, 0xc0, 0xff, 0x01, 0x00, 0x00, 0x00,
   0x00, 0x00, 0xc0, 0xc1, 0x03, 0x00, 0x00, 0x00, 0x00, 0x00, 0xe0, 0x80,
   0x03, 0x00, 0x00, 0x00, 0x00, 0x00, 0xe0, 0x00, 0x03, 0x00, 0x00, 0x00,
   0x00, 0x00, 0x60, 0x00, 0x03, 0x00, 0x00, 0x00, 0x00, 0x00, 0x60, 0x00,
   0x07, 0x00, 0x00, 0x00, 0x00, 0x00, 0x60, 0x00, 0x07, 0xff, 0x03, 0x00,
   0x00, 0x00, 0x60, 0x00, 0x07, 0xff, 0x03, 0x00, 0x00, 0x00, 0x60, 0x00,
   0x07, 0xff, 0x03, 0x00, 0x00, 0x00, 0x60, 0x00, 0x07, 0x00, 0x00, 0x00,
   0x00, 0x00, 0x60, 0x00, 0x07, 0x00, 0x00, 0x00, 0x00, 0x00, 0x60, 0x00,
   0x07, 0x00, 0x00, 0x00, 0x00, 0x00, 0x60, 0x00, 0x07, 0x3f, 0x00, 0x00,
   0x00, 0x00, 0x60, 0x00, 0x07, 0x3f, 0x00, 0x00, 0x00, 0x00, 0x60, 0x00,
   0x07, 0x3f, 0x00, 0x00, 0x00, 0x00, 0x60, 0x00, 0x07, 0x00, 0x00, 0x00,
   0x00, 0x00, 0x60, 0x00, 0x07, 0x00, 0x00, 0x00, 0x00, 0x00, 0x60, 0x00,
   0x07, 0x00, 0x00, 0x00, 0x00, 0x00, 0x60, 0x00, 0x07, 0xff, 0x03, 0x00,
   0x00, 0x00, 0x60, 0x00, 0x07, 0xff, 0x03, 0x00, 0x00, 0x00, 0x60, 0x00,
   0x07, 0xff, 0x03, 0x00, 0x00, 0x00, 0x60, 0x00, 0x07, 0x00, 0x00, 0x00,
   0x00, 0x00, 0x60, 0x00, 0x07, 0x00, 0x00, 0x00, 0x00, 0x00, 0x60, 0x1c,
   0x07, 0x00, 0x00, 0x00, 0x00, 0x00, 0x60, 0x1c, 0x07, 0x3f, 0x00, 0x00,
   0x00, 0x00, 0x60, 0x1c, 0x07, 0x3f, 0x00, 0x00, 0x00, 0x00, 0x60, 0x1c,
   0x07, 0x3f, 0x00, 0x00, 0x00, 0x00, 0x60, 0x1c, 0x07, 0x00, 0x00, 0x00,
   0x00, 0x00, 0x60, 0x1c, 0x07, 0x00, 0x00, 0x00, 0x00, 0x00, 0x60, 0x1c,
   0x07, 0x00, 0x00, 0x00, 0x00, 0x00, 0x60, 0x1c, 0x07, 0xff, 0x03, 0x00,
   0x00, 0x00, 0x60, 0x1c, 0x07, 0xff, 0x03, 0x00, 0x00, 0x00, 0x60, 0x1c,
   0x07, 0xff, 0x03, 0x00, 0x00, 0x00, 0x60, 0x1c, 0x07, 0x00, 0x00, 0x00,
   0x00, 0x00, 0x60, 0x1c, 0x07, 0x00, 0x00, 0x00, 0x00, 0x00, 0x60, 0x1c,
   0x07, 0x00, 0x00, 0x00, 0x00, 0x00, 0x70, 0x1c, 0x07, 0x00, 0x00, 0x00,
   0x00, 0x00, 0x78, 0x1c, 0x0f, 0x00, 0x00, 0x00, 0x00, 0x00, 0x3c, 0x1c,
   0x1e, 0x00, 0x00, 0x00, 0x00, 0x00, 0x1e, 0x3c, 0x3c, 0x00, 0x00, 0x00,
   0x00, 0x00, 0x8f, 0xff, 0x78, 0x00, 0x00, 0x00, 0x00, 0x80, 0xc7, 0xf8,
   0xf1, 0x00, 0x00, 0x00, 0x00, 0x80, 0x63, 0xf0, 0xe3, 0x00, 0x00, 0x00,
   0x00, 0x80, 0x33, 0xf0, 0xc7, 0x01, 0x00, 0x00, 0x00, 0xc0, 0x11, 0xfc,
   0xcf, 0x01, 0x00, 0x00, 0x00, 0xc0, 0x19, 0xfe, 0xcf, 0x01, 0x00, 0x00,
   0x00, 0xc0, 0x09, 0xff, 0xcf, 0x01, 0x00, 0x00, 0x00, 0xc0, 0x08, 0xff,
   0x8f, 0x01, 0x00, 0x00, 0x00, 0xc0, 0x08, 0xff, 0x8f, 0x01, 0x00, 0x00,
   0x00, 0xc0, 0x99, 0xff, 0x8f, 0x01, 0x00, 0x00, 0x00, 0xc0, 0xf9, 0xff,
   0xcf, 0x01, 0x00, 0x00, 0x00, 0xc0, 0xf9, 0xff, 0xcf, 0x01, 0x00, 0x00,
   0x00, 0xc0, 0xf1, 0xff, 0xc7, 0x01, 0x00, 0x00, 0x00, 0x80, 0xe3, 0xff,
   0xe7, 0x00, 0x00, 0x00, 0x00, 0x80, 0xe3, 0xff, 0xe3, 0x00, 0x00, 0x00,
   0x00, 0x00, 0x87, 0xff, 0x70, 0x00, 0x00, 0x00, 0x00, 0x00, 0x0e, 0x3e,
   0x78, 0x00, 0x00, 0x00, 0x00, 0x00, 0x3e, 0x00, 0x3c, 0x00, 0x00, 0x00,
   0x00, 0x00, 0x7c, 0x00, 0x1f, 0x00, 0x00, 0x00, 0x00, 0x00, 0xf0, 0xff,
   0x07, 0x00, 0x00, 0x00, 0x00, 0x00, 0xe0, 0xff, 0x03, 0x00, 0x00, 0x00,
   0x00, 0x00, 0x00, 0x7f, 0x00, 0x00, 0x00, 0x00 };
